<?xml version="1.0" standalone="no"?>
<!DOCTYPE svg PUBLIC "-//W3C//DTD SVG 20010904//EN"
 "http://www.w3.org/TR/2001/REC-SVG-20010904/DTD/svg10.dtd">
<svg version="1.0" xmlns="http://www.w3.org/2000/svg"
 width="800.000000pt" height="800.000000pt" viewBox="0 0 800.000000 800.000000"
 preserveAspectRatio="xMidYMid meet">

<g transform="translate(0.000000,800.000000) scale(0.100000,-0.100000)"
fill="#000000" stroke="none">
<path d="M0 4000 l0 -4000 4000 0 4000 0 0 4000 0 4000 -4000 0 -4000 0 0
-4000z m4410 3661 c236 -28 406 -59 555 -101 22 -6 65 -17 95 -24 65 -16 208
-62 232 -76 10 -6 22 -10 28 -10 6 0 32 -9 58 -21 26 -12 57 -25 70 -30 12 -5
32 -13 45 -18 72 -30 352 -171 419 -212 44 -27 83 -49 88 -49 5 0 10 -3 12 -7
2 -5 30 -26 63 -47 329 -214 653 -521 921 -871 46 -61 191 -284 225 -345 13
-25 27 -47 30 -50 13 -11 177 -352 190 -395 7 -25 17 -45 21 -45 4 0 8 -6 8
-14 0 -7 9 -38 21 -67 12 -30 25 -63 29 -74 4 -11 18 -54 30 -95 12 -41 26
-86 31 -100 5 -14 13 -45 18 -70 6 -25 15 -63 21 -85 6 -22 15 -65 21 -95 5
-30 14 -77 19 -105 67 -347 75 -818 20 -1195 -17 -121 -41 -245 -60 -315 -6
-22 -14 -51 -17 -65 -20 -95 -93 -328 -123 -397 -13 -30 -31 -73 -40 -98 -30
-77 -155 -333 -201 -410 -16 -27 -37 -65 -46 -82 -9 -18 -20 -33 -25 -33 -4 0
-8 -5 -8 -10 0 -27 -163 -256 -303 -425 -71 -85 -306 -326 -387 -395 -72 -62
-90 -77 -121 -100 -18 -14 -50 -40 -70 -57 -20 -18 -39 -33 -43 -33 -3 0 -32
-20 -65 -45 -32 -25 -64 -45 -69 -45 -6 0 -12 -4 -14 -8 -3 -8 -93 -72 -101
-72 -2 0 -39 -21 -83 -47 -96 -58 -406 -212 -509 -254 -11 -4 -58 -20 -105
-34 -47 -15 -93 -32 -104 -37 -10 -5 -26 -11 -35 -14 -19 -4 -75 -20 -128 -35
-21 -6 -49 -13 -63 -15 -14 -3 -34 -9 -45 -14 -26 -11 -62 -19 -235 -50 -216
-39 -359 -50 -663 -50 -141 1 -264 3 -272 6 -8 3 -45 7 -82 9 -38 1 -102 8
-143 15 -41 6 -100 15 -130 20 -83 13 -233 48 -345 80 -22 6 -52 14 -68 17
-15 3 -30 9 -33 14 -3 5 -14 9 -25 9 -10 0 -27 4 -37 9 -24 12 -109 41 -157
54 -22 6 -42 13 -45 17 -3 3 -41 21 -85 38 -91 37 -309 146 -435 219 -100 57
-321 211 -420 292 -58 47 -116 95 -130 106 -13 11 -93 88 -176 170 -148 147
-287 309 -380 443 -26 37 -65 90 -86 118 -21 28 -38 54 -38 58 0 3 -15 30 -34
59 -114 176 -293 561 -352 757 -9 30 -20 64 -24 75 -4 11 -13 40 -20 65 -6 25
-16 53 -21 62 -5 10 -9 31 -9 47 0 17 -4 32 -8 35 -4 2 -9 19 -10 37 -1 18 -6
37 -11 43 -5 6 -11 34 -15 61 -3 28 -11 73 -16 100 -11 53 -27 166 -37 250 -3
28 -7 172 -10 320 -4 238 1 365 22 565 9 83 63 342 94 455 39 141 75 253 107
335 15 36 33 83 41 105 9 22 22 56 30 75 23 54 147 304 154 310 3 3 8 12 12
20 26 60 167 279 261 405 129 172 171 220 362 410 187 187 235 229 363 323 47
35 93 69 102 76 37 30 139 96 148 96 6 0 11 5 11 10 0 6 4 10 9 10 5 0 38 17
72 38 74 44 186 106 244 134 73 36 159 76 198 92 20 9 52 22 70 30 59 26 178
66 197 66 10 0 20 4 22 10 2 5 30 16 63 25 33 9 76 21 95 27 226 63 414 98
634 118 60 5 112 12 115 16 9 9 523 -4 621 -15z"/>
<path d="M3759 7576 c-3 -3 -55 -10 -115 -16 -126 -11 -150 -15 -262 -35 -139
-26 -372 -84 -432 -108 -8 -3 -44 -15 -80 -27 -36 -11 -73 -25 -82 -30 -10 -6
-22 -10 -27 -10 -5 0 -26 -8 -47 -17 -22 -9 -45 -18 -52 -19 -14 -3 -50 -19
-202 -93 -58 -28 -118 -58 -135 -68 -172 -103 -207 -123 -212 -123 -10 0 -221
-155 -378 -277 -107 -83 -409 -394 -514 -528 -56 -71 -105 -135 -110 -141 -20
-25 -161 -242 -161 -247 0 -4 -11 -22 -24 -42 -51 -75 -246 -486 -246 -518 0
-9 -4 -19 -10 -22 -5 -3 -10 -17 -10 -30 0 -13 -5 -27 -10 -30 -6 -3 -10 -15
-10 -26 0 -10 -4 -27 -9 -37 -15 -30 -28 -66 -41 -112 -7 -25 -16 -55 -21 -68
-5 -13 -9 -34 -9 -47 0 -13 -4 -26 -9 -29 -4 -3 -11 -22 -15 -43 -3 -21 -10
-58 -15 -83 -59 -290 -71 -417 -72 -757 0 -145 2 -282 6 -305 3 -24 7 -63 10
-88 16 -168 64 -435 85 -472 6 -10 10 -29 10 -42 0 -14 4 -35 9 -48 5 -13 14
-43 21 -68 7 -25 16 -54 20 -65 5 -11 18 -49 30 -85 11 -36 25 -73 30 -82 6
-10 10 -22 10 -28 0 -29 125 -294 233 -495 166 -310 523 -735 815 -972 31 -25
59 -49 62 -53 9 -12 194 -146 270 -196 109 -71 111 -72 150 -92 19 -9 37 -20
40 -23 3 -4 59 -35 125 -69 66 -34 124 -66 130 -71 5 -5 15 -9 23 -9 7 0 46
-16 85 -34 40 -19 106 -47 147 -62 165 -58 215 -74 232 -74 9 0 19 -4 22 -9 3
-5 18 -11 33 -14 16 -3 47 -11 71 -16 97 -25 128 -32 152 -36 14 -2 43 -8 65
-14 40 -10 93 -19 240 -43 86 -14 682 -18 830 -7 110 9 304 40 363 58 18 5 35
10 37 10 15 1 84 14 110 21 103 29 182 53 197 61 10 5 24 9 32 9 11 0 64 19
141 50 11 5 47 18 80 30 33 12 85 33 115 47 126 58 228 109 275 136 28 17 70
41 95 55 25 14 85 51 134 84 48 32 90 58 93 58 3 0 17 10 32 22 15 13 43 34
61 48 298 221 606 539 808 835 34 50 66 95 72 102 5 7 10 15 10 18 0 3 14 24
30 47 17 22 30 47 30 54 0 7 3 14 8 16 7 3 45 69 67 115 5 13 13 23 18 23 4 0
7 8 7 18 0 9 9 28 20 42 11 14 20 28 20 32 0 3 16 42 35 85 44 95 62 138 88
203 5 14 13 33 18 42 5 10 9 26 9 36 0 10 4 22 8 28 5 5 15 29 22 54 8 25 17
50 21 55 3 6 9 24 12 40 3 17 15 68 27 115 57 226 60 241 81 380 27 190 34
296 33 545 0 377 -28 601 -119 945 -9 36 -19 77 -22 93 -3 15 -9 30 -14 33 -5
3 -9 16 -9 29 0 13 -4 27 -10 30 -5 3 -10 15 -10 26 0 10 -4 27 -9 37 -5 9
-21 49 -36 87 -29 77 -52 131 -66 157 -5 10 -9 25 -9 33 0 8 -4 15 -10 15 -5
0 -10 6 -10 13 0 14 -94 200 -138 275 -18 29 -32 57 -32 62 0 6 -4 10 -10 10
-5 0 -10 5 -10 10 0 28 -194 300 -328 460 -234 280 -618 606 -908 771 -132 75
-169 95 -259 138 -55 27 -117 56 -137 65 -85 36 -129 55 -183 77 -74 30 -322
104 -415 124 -41 9 -102 23 -135 31 -58 14 -129 25 -305 45 -95 11 -662 23
-671 15z m454 -211 c0 -49 -4 -134 -8 -188 l-7 -99 -52 8 c-28 4 -60 8 -71 10
-11 1 -57 3 -102 3 l-83 1 0 90 0 90 50 0 50 0 0 -50 0 -50 55 0 c30 0 55 1
56 3 0 1 3 44 6 95 l5 92 -177 0 -178 0 7 -132 c4 -73 10 -161 14 -196 l7 -64
263 -1 262 -2 1 35 c1 19 2 51 4 70 7 78 25 336 25 353 0 12 4 16 12 11 7 -5
53 -12 103 -16 85 -7 144 -16 260 -38 28 -5 74 -13 103 -19 83 -16 94 -21 86
-39 -7 -17 -18 -61 -29 -117 -4 -16 -10 -39 -15 -50 -5 -11 -11 -33 -14 -50
-21 -123 -15 -117 -111 -95 -27 6 -72 15 -100 21 -83 15 -110 25 -107 40 2 7
6 44 9 81 6 74 7 75 72 62 30 -6 31 -9 31 -55 l0 -49 40 -2 c22 -1 48 -2 58
-2 10 -1 18 7 18 19 1 11 7 40 13 65 16 68 14 87 -11 95 -34 11 -245 45 -293
48 -34 2 -29 26 -54 -248 -12 -134 -8 -145 53 -145 30 0 123 -15 186 -30 19
-5 58 -14 85 -20 28 -7 61 -16 75 -20 14 -5 41 -11 61 -14 35 -6 36 -5 48 36
7 24 17 51 22 60 5 10 9 29 9 42 0 14 4 27 9 30 5 3 11 20 14 38 5 38 56 230
62 237 5 5 91 -21 205 -61 86 -31 108 -40 193 -77 119 -53 137 -62 137 -70 0
-4 -18 -46 -41 -92 -22 -46 -55 -114 -72 -151 -18 -37 -37 -68 -44 -68 -11 0
-102 39 -186 81 -22 10 -45 19 -52 19 -23 0 -37 26 -26 49 6 12 16 30 21 41 6
11 10 27 10 36 0 8 5 24 10 34 10 19 12 19 53 3 23 -9 44 -17 45 -19 2 -1 -4
-19 -13 -38 -19 -40 -9 -66 26 -66 10 0 21 -4 24 -10 3 -5 15 -10 25 -10 14 0
28 18 50 62 45 94 42 105 -45 138 -11 5 -40 17 -65 28 -25 10 -63 25 -85 33
-22 7 -44 17 -50 21 -30 26 -55 -6 -83 -107 -6 -22 -26 -86 -43 -142 -18 -55
-29 -108 -26 -116 3 -8 20 -17 37 -20 17 -4 46 -13 63 -20 18 -8 57 -24 87
-37 30 -13 101 -45 157 -72 56 -26 109 -48 117 -48 9 0 35 41 64 98 92 180
133 257 143 267 5 5 9 17 9 27 0 26 14 23 81 -17 33 -19 62 -35 65 -35 9 0
269 -175 294 -198 14 -12 33 -25 43 -28 22 -7 22 -14 -6 -46 -12 -14 -53 -68
-92 -118 -108 -143 -102 -136 -119 -125 -36 24 -200 141 -217 155 -17 14 -17
17 17 70 19 30 37 63 40 73 8 22 9 22 60 -10 l42 -27 -20 -28 c-10 -16 -18
-36 -16 -45 3 -16 62 -63 79 -63 4 0 20 18 36 40 15 23 36 50 46 62 9 12 17
26 17 33 0 10 -72 75 -84 75 -2 0 -45 27 -95 60 -50 33 -95 60 -99 60 -8 0
-72 -95 -72 -106 0 -2 -12 -23 -27 -47 -15 -23 -37 -60 -48 -82 -12 -22 -28
-51 -38 -65 -9 -14 -13 -30 -9 -35 4 -6 66 -49 137 -97 72 -48 156 -108 189
-135 99 -81 92 -78 114 -51 41 47 105 124 121 143 9 11 50 62 90 113 41 50 76
92 78 92 13 0 223 -205 356 -347 54 -58 56 -62 39 -75 -16 -11 -114 -94 -146
-123 -6 -6 -35 -30 -64 -54 l-54 -44 -41 44 c-23 25 -70 77 -104 115 l-62 71
63 62 62 61 38 -39 c37 -38 38 -39 17 -50 -11 -6 -25 -21 -31 -32 -9 -16 -6
-26 17 -54 15 -18 35 -34 43 -34 9 -1 42 26 74 58 l59 60 -79 83 c-43 46 -98
100 -120 121 l-42 37 -28 -28 c-16 -15 -42 -43 -58 -62 -16 -19 -60 -68 -98
-109 -37 -40 -68 -80 -68 -89 0 -8 51 -67 113 -131 62 -64 135 -144 162 -178
28 -35 56 -63 64 -63 7 0 90 61 183 135 93 75 174 138 181 141 7 2 22 -6 34
-18 23 -25 193 -273 193 -281 0 -3 23 -42 50 -87 28 -45 48 -85 46 -88 -2 -4
-30 -20 -63 -37 -32 -16 -60 -32 -63 -35 -3 -3 -18 -12 -35 -20 -16 -8 -56
-30 -88 -47 -33 -18 -60 -33 -62 -33 -2 0 -30 46 -61 103 -32 56 -66 114 -76
129 -10 14 -18 28 -18 31 0 3 32 27 71 53 l71 48 19 -25 c34 -44 34 -59 -2
-88 l-32 -27 19 -35 c35 -62 39 -64 88 -30 25 17 49 31 55 31 6 0 11 5 11 10
0 6 7 10 15 10 34 0 17 37 -91 199 -37 56 -72 101 -78 101 -21 -1 -308 -221
-303 -233 3 -7 42 -71 89 -143 46 -71 99 -162 118 -202 19 -39 42 -74 52 -77
9 -3 64 18 130 51 62 31 152 76 201 100 48 24 89 44 92 44 4 0 27 -47 60 -125
7 -16 22 -51 33 -76 46 -103 116 -329 105 -340 -6 -6 -30 -15 -54 -20 -42 -9
-136 -36 -228 -66 -24 -7 -47 -10 -51 -6 -4 4 -19 49 -34 98 -26 86 -38 119
-57 157 -5 10 -9 20 -9 22 0 6 60 36 72 36 5 0 28 9 50 20 23 11 42 19 43 17
1 -1 9 -22 19 -46 16 -41 16 -44 -1 -57 -10 -7 -26 -14 -35 -14 -27 0 -31 -18
-12 -65 18 -47 42 -58 82 -35 9 5 37 14 61 20 l43 11 -6 40 c-4 22 -10 48 -15
57 -5 9 -19 44 -31 77 -37 99 -63 155 -73 155 -10 0 -45 -15 -142 -60 -99 -46
-154 -70 -162 -70 -5 0 -17 -7 -27 -15 -14 -10 -16 -18 -9 -27 13 -16 74 -178
104 -273 12 -38 25 -78 30 -87 5 -10 9 -26 9 -36 0 -11 7 -33 16 -51 17 -34
24 -35 109 -11 53 15 108 29 190 49 44 11 103 26 132 34 59 16 56 18 74 -63
31 -137 45 -227 75 -471 l6 -46 -124 -8 c-67 -4 -150 -8 -183 -9 l-60 -1 -8
40 c-4 22 -12 76 -17 120 -5 44 -12 94 -15 112 -8 35 -5 36 122 60 l51 9 6
-29 c12 -62 8 -77 -21 -77 -49 0 -56 -11 -48 -74 l7 -57 62 6 c134 13 129 11
121 58 -4 23 -11 69 -16 102 -31 218 -26 209 -103 200 -33 -3 -68 -11 -77 -16
-10 -5 -31 -9 -48 -9 -16 0 -40 -4 -53 -9 -13 -5 -49 -15 -81 -22 -32 -7 -60
-15 -62 -19 -2 -4 1 -35 6 -71 22 -129 29 -187 39 -309 5 -69 12 -131 15 -139
4 -11 25 -13 108 -7 56 3 164 9 239 13 l137 6 3 -59 c3 -65 -8 -368 -18 -477
-6 -69 -6 -69 -32 -63 -30 7 -129 22 -237 35 -103 12 -108 16 -100 65 3 23 9
92 11 154 l6 112 94 0 94 0 0 -32 c0 -18 -3 -44 -7 -56 -5 -20 -10 -23 -37
-18 -50 10 -68 -10 -64 -69 l3 -50 65 -8 c127 -15 112 -24 127 78 7 50 12 131
11 180 l-3 90 -195 0 -195 0 -7 -80 c-4 -44 -12 -132 -18 -195 -5 -63 -14
-144 -19 -180 -5 -36 -6 -69 -1 -74 11 -11 84 -25 136 -26 22 0 44 -4 50 -9 5
-5 32 -12 59 -15 122 -14 151 -18 160 -27 5 -5 21 -9 36 -9 26 0 26 -1 21 -47
-2 -27 -9 -56 -13 -65 -5 -9 -9 -27 -9 -39 0 -12 -4 -36 -9 -53 -5 -17 -15
-51 -21 -76 -35 -135 -80 -281 -90 -293 -4 -5 -16 -4 -26 1 -11 6 -46 20 -79
32 -33 12 -69 26 -80 30 -11 5 -50 19 -87 31 -50 17 -68 28 -68 40 0 10 5 21
10 24 6 3 10 15 10 26 0 10 4 27 9 37 8 15 27 84 45 165 8 32 21 33 124 9 45
-11 69 -21 63 -27 -5 -6 -11 -23 -13 -39 -4 -39 -29 -54 -62 -37 -30 16 -56 2
-56 -30 0 -11 -5 -28 -12 -38 -17 -27 1 -46 60 -61 26 -6 57 -17 69 -22 33
-16 49 -4 62 49 7 26 17 57 21 68 18 42 43 152 44 190 1 39 0 40 -39 46 -22 4
-62 12 -90 18 -121 29 -247 51 -257 45 -4 -3 -8 -20 -8 -39 0 -19 -4 -37 -10
-40 -5 -3 -10 -17 -10 -30 0 -13 -4 -34 -9 -47 -5 -13 -15 -43 -21 -68 -22
-78 -73 -225 -81 -235 -5 -5 -9 -21 -9 -35 0 -18 8 -28 28 -36 15 -7 110 -44
212 -84 102 -40 190 -77 197 -82 8 -6 9 -16 4 -26 -5 -10 -13 -28 -19 -42 -18
-46 -123 -254 -168 -335 -24 -44 -47 -88 -50 -97 -8 -24 -29 -29 -50 -12 -30
22 -225 144 -232 144 -4 0 -18 9 -30 18 l-24 18 26 45 c14 24 49 85 76 135
l50 91 80 -38 c44 -22 80 -41 80 -44 0 -4 -39 -77 -45 -83 -1 -2 -19 6 -38 17
-40 22 -43 20 -81 -48 l-19 -34 24 -18 c42 -31 128 -71 143 -66 20 8 160 292
152 306 -8 12 -41 28 -221 109 -148 66 -133 69 -192 -45 -81 -158 -108 -207
-151 -269 -51 -76 -59 -102 -35 -112 10 -4 53 -31 95 -59 42 -29 81 -53 87
-53 5 0 11 -4 13 -8 2 -5 43 -35 92 -67 48 -32 90 -64 93 -71 5 -13 -130 -199
-217 -299 -142 -162 -138 -159 -157 -144 -10 8 -71 66 -135 129 l-118 115 48
51 c78 84 142 159 142 167 0 17 26 4 86 -40 35 -27 63 -54 64 -60 0 -7 -13
-27 -29 -45 l-30 -33 -28 28 c-16 15 -34 27 -39 27 -17 0 -74 -78 -68 -93 8
-22 111 -107 129 -107 19 0 37 19 146 158 93 117 93 108 -6 175 -61 41 -129
92 -175 129 -14 11 -36 25 -49 31 -20 10 -26 8 -45 -18 -53 -74 -142 -179
-226 -268 -51 -53 -90 -101 -88 -106 1 -6 75 -85 163 -176 88 -92 161 -170
163 -174 3 -10 -103 -109 -195 -183 -98 -79 -245 -188 -252 -188 -5 1 -68 91
-96 138 -5 9 -12 19 -15 22 -3 3 -26 36 -52 74 l-47 68 52 36 c71 49 180 133
189 146 4 6 8 8 10 6 2 -3 27 -33 56 -67 28 -34 52 -66 52 -71 0 -5 -16 -22
-36 -37 l-35 -27 -32 36 -32 37 -45 -39 -45 -40 34 -48 c19 -27 42 -59 50 -71
9 -12 22 -23 28 -23 18 0 129 84 242 182 26 23 31 34 25 48 -8 17 -60 78 -179
208 -27 30 -51 58 -53 63 -8 21 -48 6 -96 -34 -69 -59 -239 -185 -304 -226
-60 -38 -60 -43 -7 -126 119 -185 197 -316 192 -327 -3 -7 -22 -22 -43 -33
-22 -11 -41 -22 -44 -25 -7 -7 -295 -150 -303 -150 -3 0 -31 -11 -61 -25 -59
-27 -76 -30 -76 -15 0 5 -11 33 -24 62 -13 29 -27 64 -31 78 -4 14 -16 45 -27
70 -47 107 -51 120 -33 120 8 0 50 16 92 36 42 19 99 44 125 56 l49 21 20 -22
c11 -11 18 -21 15 -21 -3 0 8 -24 24 -53 l29 -54 -41 -22 c-31 -16 -44 -19
-54 -10 -8 6 -14 16 -14 22 0 6 -7 18 -16 28 -15 16 -18 16 -65 -3 -57 -24
-59 -34 -24 -104 14 -27 25 -54 25 -61 0 -7 9 -17 20 -23 16 -8 35 -3 97 25
43 19 92 42 108 51 17 9 51 27 78 41 46 25 56 40 38 58 -5 6 -19 27 -30 48
-12 20 -30 53 -41 72 -52 91 -64 113 -82 147 -24 45 -38 51 -74 31 -49 -27
-224 -113 -230 -113 -3 0 -30 -11 -60 -25 -30 -14 -58 -25 -62 -25 -5 0 -27
-9 -50 -20 -34 -17 -42 -26 -42 -48 0 -16 4 -32 8 -37 4 -6 14 -28 21 -50 13
-42 27 -78 42 -107 5 -10 9 -25 9 -33 0 -8 4 -23 9 -33 11 -19 46 -115 56
-149 5 -19 2 -23 -14 -23 -12 0 -29 -4 -39 -9 -30 -15 -149 -51 -170 -51 -12
0 -23 -4 -26 -9 -3 -5 -23 -11 -43 -14 -21 -3 -58 -10 -83 -16 -25 -6 -65 -15
-90 -21 -25 -5 -57 -12 -72 -16 -32 -7 -31 -9 -48 96 -6 41 -18 105 -26 142
-8 37 -14 78 -14 91 0 25 -9 22 195 63 39 7 80 16 93 20 17 5 22 2 22 -12 0
-9 5 -34 11 -53 30 -100 31 -90 -9 -107 -44 -18 -65 -9 -72 32 -4 25 -10 29
-42 32 -20 2 -50 -4 -67 -13 -26 -13 -29 -19 -22 -38 5 -12 12 -44 16 -72 5
-27 9 -53 11 -57 1 -5 2 -13 3 -18 1 -12 52 -6 111 13 19 6 42 11 50 12 8 1
26 5 40 9 14 3 43 12 65 18 68 18 95 30 95 42 0 6 -11 47 -25 91 -14 44 -35
112 -46 150 -33 107 -38 115 -75 115 -18 0 -35 -4 -38 -9 -3 -5 -18 -11 -33
-14 -16 -3 -71 -15 -123 -27 -112 -26 -179 -39 -240 -47 -59 -7 -73 -19 -66
-57 7 -36 37 -252 53 -383 l5 -41 -64 -6 c-34 -3 -115 -10 -179 -16 -63 -5
-168 -10 -233 -10 l-118 0 7 127 c4 69 8 149 9 177 l1 51 156 3 156 2 7 -46
c3 -26 6 -64 6 -85 l0 -39 -49 0 -50 0 -3 43 -3 42 -60 0 -60 0 -5 -88 c-3
-49 -1 -91 3 -94 5 -3 84 -5 175 -4 191 2 198 5 188 76 -3 22 -11 100 -17 174
-13 137 -25 169 -58 155 -28 -12 -393 -17 -440 -6 -74 17 -77 13 -85 -123 -7
-121 -27 -339 -32 -344 -5 -6 -225 16 -289 28 -27 5 -70 12 -95 16 -25 4 -56
11 -70 15 -14 5 -38 11 -55 14 -48 7 -66 17 -61 35 3 9 10 36 16 61 28 108 33
126 42 147 6 12 11 33 11 47 0 15 3 29 8 32 5 3 9 13 9 24 0 16 4 17 38 9 89
-22 130 -30 170 -35 24 -2 52 -9 62 -14 9 -5 21 -6 25 -2 4 4 4 -9 0 -28 -3
-19 -9 -59 -12 -88 -5 -56 -9 -58 -72 -46 -27 6 -30 10 -25 28 8 22 7 66 -1
74 -3 3 -18 5 -35 4 -16 0 -32 4 -35 9 -20 31 -65 -23 -65 -76 0 -14 -7 -40
-16 -57 -16 -31 -16 -32 10 -53 15 -12 42 -21 66 -22 21 -1 47 -6 57 -12 25
-13 233 -26 233 -15 0 5 5 50 11 99 5 50 12 110 13 135 2 25 7 64 11 87 9 53
-2 68 -52 71 -44 2 -86 11 -273 53 -74 17 -145 36 -157 41 -33 16 -47 5 -61
-48 -8 -27 -17 -58 -22 -69 -4 -11 -13 -40 -20 -65 -11 -40 -29 -96 -60 -196
-6 -17 -10 -38 -10 -48 0 -20 -26 -32 -43 -19 -6 5 -32 15 -57 22 -42 11 -125
40 -180 63 -14 6 -34 14 -45 18 -11 4 -58 24 -103 44 -46 20 -90 36 -97 36
-27 0 -26 38 3 91 16 30 51 95 76 144 26 50 51 94 55 98 4 4 50 -13 101 -38
52 -25 101 -45 110 -45 9 0 22 -6 28 -12 7 -7 17 -14 22 -14 6 -1 12 -2 15 -3
3 0 0 -11 -7 -23 -7 -13 -13 -27 -13 -33 -1 -11 -11 -37 -28 -75 -6 -14 -12
-26 -12 -27 0 -1 -19 4 -40 12 -30 10 -39 18 -37 32 15 81 15 80 -19 97 -17 9
-45 16 -60 16 -23 0 -29 -6 -40 -37 -7 -21 -20 -53 -31 -71 -10 -18 -18 -41
-18 -51 0 -17 37 -41 64 -41 8 0 19 -6 26 -14 6 -8 18 -12 26 -9 8 3 14 0 14
-6 0 -6 8 -11 18 -11 10 0 37 -9 60 -20 22 -11 47 -20 55 -20 7 0 18 -5 24
-11 25 -25 54 -5 75 51 11 30 22 64 25 75 2 11 9 31 15 45 17 41 25 63 39 110
7 25 17 48 22 51 5 4 6 16 3 27 -5 14 -22 24 -56 33 -28 7 -50 16 -50 19 0 3
-17 12 -37 19 -57 19 -225 98 -320 149 -13 8 -26 12 -27 10 -14 -16 -86 -149
-86 -157 0 -6 -4 -11 -8 -11 -5 0 -28 -39 -52 -87 -24 -49 -46 -90 -50 -93 -3
-3 -14 -22 -25 -42 l-19 -37 -46 25 c-25 15 -65 38 -90 52 -75 42 -226 145
-349 238 -3 3 51 75 76 102 7 7 34 41 60 75 26 34 57 73 69 86 l22 24 49 -40
c26 -22 80 -61 120 -88 80 -52 79 -49 26 -129 -18 -27 -34 -54 -36 -59 -2 -7
-57 18 -86 39 -2 2 6 15 18 30 22 28 29 74 10 74 -6 0 -22 9 -36 20 -14 11
-33 20 -42 20 -24 -1 -114 -126 -106 -149 6 -18 207 -161 227 -161 6 0 16 -7
23 -16 8 -12 20 -15 36 -11 22 6 49 45 160 238 8 15 23 39 32 53 9 14 17 32
17 40 0 15 -59 66 -75 66 -4 0 -31 17 -59 39 -28 21 -64 47 -81 57 -16 10 -32
21 -35 24 -3 3 -21 17 -40 31 -19 15 -48 39 -65 54 -72 64 -86 65 -123 12 -12
-17 -44 -55 -70 -83 -26 -29 -56 -63 -67 -76 -30 -37 -97 -117 -121 -144 l-21
-24 -99 98 c-125 123 -264 275 -264 288 0 4 -8 13 -18 20 -16 12 -13 17 28 54
25 22 70 60 100 83 30 23 71 57 90 75 l35 33 40 -47 c22 -26 69 -78 104 -115
l63 -68 -62 -62 -62 -62 -29 34 c-16 19 -29 37 -29 40 0 4 11 14 25 23 14 9
25 26 25 37 0 19 -61 89 -78 89 -5 0 -39 -28 -76 -62 l-67 -63 48 -54 c101
-114 189 -201 204 -201 9 0 54 41 100 92 46 51 101 110 122 132 64 66 64 63
-21 151 -43 44 -109 118 -147 165 -38 47 -72 87 -76 90 -3 3 -11 15 -18 27 -8
16 -21 23 -41 23 -15 0 -30 -4 -32 -8 -1 -5 -30 -28 -63 -53 -33 -24 -66 -50
-73 -56 -7 -7 -16 -13 -20 -13 -4 0 -23 -15 -43 -33 -20 -17 -62 -51 -95 -73
l-59 -41 -61 91 c-82 122 -147 224 -164 261 -8 17 -17 32 -20 35 -3 3 -17 28
-32 57 l-27 51 92 48 c51 26 120 62 154 80 l62 32 18 -27 c10 -14 27 -44 39
-66 11 -22 37 -68 57 -102 40 -66 45 -83 24 -83 -8 0 -22 -9 -32 -20 -10 -11
-22 -20 -27 -20 -5 0 -18 -9 -30 -20 -12 -11 -24 -20 -27 -20 -8 0 -51 67 -51
79 0 5 13 15 30 23 39 17 40 52 1 98 l-29 35 -51 -25 c-28 -14 -51 -28 -51
-32 0 -5 -8 -8 -18 -8 -9 0 -23 -9 -30 -20 -11 -18 -9 -26 18 -65 16 -24 30
-47 30 -51 0 -9 60 -105 77 -122 7 -7 13 -19 13 -26 0 -7 11 -23 24 -35 20
-19 25 -20 37 -8 8 8 19 16 25 18 10 4 81 53 225 156 32 24 59 48 59 53 0 12
-52 94 -62 98 -5 2 -8 8 -8 13 0 11 -61 112 -73 120 -5 4 -6 12 -3 18 4 6 3
11 -3 11 -6 0 -32 45 -58 100 -55 117 -39 113 -195 41 -37 -17 -72 -31 -77
-31 -6 0 -11 -4 -11 -10 0 -5 -6 -10 -14 -10 -8 0 -55 -20 -105 -45 -50 -25
-93 -45 -96 -45 -3 0 -5 7 -5 16 0 15 -6 31 -55 139 -12 28 -35 86 -49 130
-15 44 -31 89 -36 100 -24 60 -49 160 -41 168 5 5 27 13 48 18 21 4 58 13 83
19 25 6 52 13 60 15 70 15 109 25 122 30 17 7 24 -8 58 -125 26 -92 41 -132
52 -144 4 -6 -6 -16 -25 -24 -35 -17 -132 -52 -132 -49 0 1 -6 19 -13 39 -15
44 -10 58 23 58 38 0 47 29 26 86 -17 48 -18 49 -57 46 -21 -2 -43 -7 -49 -12
-5 -4 -24 -11 -42 -14 -58 -13 -63 -38 -25 -136 3 -8 6 -19 7 -25 1 -5 7 -23
15 -40 7 -16 16 -40 21 -52 40 -104 44 -108 70 -105 13 1 43 11 66 22 24 11
45 20 48 20 3 0 27 10 53 21 116 52 132 59 140 59 5 0 17 9 27 20 16 18 17 24
5 48 -7 15 -17 38 -23 52 -5 14 -13 33 -18 42 -5 10 -9 26 -9 36 0 10 -4 22
-8 27 -5 6 -14 30 -21 55 -7 25 -17 54 -21 65 -4 11 -15 55 -25 97 -25 107
-21 104 -102 90 -37 -6 -86 -16 -108 -21 -22 -6 -60 -15 -85 -21 -25 -6 -63
-15 -85 -21 -22 -6 -58 -14 -81 -18 l-41 -7 -11 45 c-6 25 -11 53 -11 61 0 8
-5 44 -11 80 -22 134 -33 217 -35 292 -2 42 -6 81 -9 86 -3 5 69 12 164 15 93
4 175 8 182 9 10 2 13 -18 15 -82 1 -47 5 -113 11 -148 10 -73 10 -73 -68 -83
-30 -4 -62 -10 -71 -14 -14 -5 -18 2 -21 37 -6 50 -1 58 42 67 17 3 31 9 31
14 -1 4 -1 30 -1 57 l0 50 -89 0 c-61 0 -92 -4 -99 -13 -8 -9 -8 -38 0 -103 6
-49 12 -105 14 -124 1 -19 7 -55 11 -80 l9 -45 44 1 c25 1 72 6 105 13 33 7
96 18 140 25 109 18 118 23 111 55 -3 14 -11 71 -16 126 -6 55 -15 136 -20
180 -6 44 -10 106 -10 138 l0 57 -245 0 -245 0 0 108 c1 96 5 150 28 387 l7
70 50 -1 c28 -1 82 -7 120 -13 39 -7 93 -15 122 -17 28 -3 54 -11 56 -17 2 -7
0 -41 -5 -77 -5 -36 -10 -97 -11 -137 -1 -39 -5 -74 -8 -78 -3 -3 -45 -2 -92
1 -84 7 -86 7 -75 28 6 12 11 22 10 24 -1 1 -2 11 -2 21 0 17 8 20 47 23 l47
3 0 56 1 57 -50 12 c-27 6 -72 10 -100 8 l-50 -3 -1 -40 c-1 -22 -5 -100 -9
-173 -7 -108 -6 -135 5 -142 8 -5 98 -9 202 -10 145 0 189 2 193 12 2 7 6 42
10 78 6 68 32 321 42 403 4 35 2 47 -9 48 -19 1 -45 6 -108 19 -30 6 -73 14
-95 16 -22 3 -49 9 -60 14 -20 8 -60 16 -145 29 l-45 6 2 45 c2 25 7 61 13 80
5 19 19 69 30 110 11 41 25 93 31 115 6 22 15 49 19 60 5 11 19 49 31 85 12
36 23 66 24 68 2 2 14 -2 27 -9 44 -23 58 -29 68 -29 6 0 29 -9 53 -19 23 -10
75 -31 114 -46 73 -27 81 -33 64 -50 -10 -12 -71 -186 -71 -206 0 -8 -7 -23
-15 -33 -15 -20 -16 -20 -91 -1 -67 17 -75 21 -70 39 3 12 6 28 6 36 1 34 15
43 46 28 44 -22 60 -13 79 44 17 51 17 52 -7 69 -12 10 -24 16 -26 14 -2 -2
-26 5 -53 16 -57 22 -88 24 -93 7 -8 -32 -28 -95 -36 -113 -4 -11 -13 -40 -20
-65 -7 -25 -16 -55 -21 -68 -5 -13 -9 -38 -9 -56 0 -38 12 -45 115 -66 33 -7
85 -19 115 -27 126 -33 151 -36 165 -16 8 10 19 41 25 68 6 28 15 61 19 75 5
14 14 43 20 65 7 22 16 49 21 60 4 11 23 58 41 105 17 47 36 89 41 95 4 5 8
12 8 15 0 6 -41 27 -105 55 -22 10 -71 32 -110 50 -38 18 -92 40 -120 50 -27
10 -57 24 -66 32 -9 7 -19 10 -22 7 -4 -4 -9 1 -13 10 -8 21 102 245 193 394
35 56 63 107 63 113 0 6 4 9 9 7 26 -10 290 -195 290 -203 1 -9 -96 -165 -119
-192 -5 -7 -10 -16 -10 -20 0 -4 -7 -16 -14 -26 -13 -16 -17 -15 -76 18 -34
19 -66 35 -71 35 -5 0 -9 3 -9 6 0 5 35 67 46 83 2 2 16 -6 32 -18 17 -12 35
-21 40 -21 13 0 62 83 62 104 0 9 -6 16 -14 16 -8 0 -16 4 -18 9 -4 13 -106
71 -124 71 -8 0 -18 -8 -21 -17 -4 -10 -23 -45 -43 -78 -19 -33 -47 -81 -60
-107 -14 -27 -28 -48 -32 -48 -5 0 -8 -17 -8 -38 l0 -38 158 -77 c87 -42 168
-77 180 -77 16 0 28 13 45 48 13 26 48 88 77 137 29 50 59 102 67 117 8 15 18
30 23 33 5 3 17 21 26 40 9 19 20 35 25 35 5 0 9 12 9 28 0 23 -17 39 -111
107 -61 44 -116 85 -123 91 -6 5 -39 29 -73 52 -35 24 -63 46 -63 50 0 4 21
35 48 68 26 34 60 79 77 100 16 22 52 64 80 94 27 30 77 86 110 123 53 59 61
65 72 50 7 -9 50 -55 95 -103 46 -47 96 -100 112 -117 l28 -32 -58 -58 c-33
-33 -80 -83 -106 -111 l-46 -51 -66 54 -67 54 34 37 34 38 29 -27 c16 -15 32
-27 36 -27 11 0 78 74 78 86 0 14 -117 124 -132 124 -14 0 -74 -66 -209 -228
-26 -30 -24 -54 5 -72 13 -8 41 -29 62 -47 137 -111 206 -163 218 -163 7 0 24
15 37 34 30 42 151 177 247 276 39 41 72 78 72 81 0 9 -40 59 -104 129 -28 31
-80 89 -116 129 -36 41 -71 80 -78 87 -11 12 -9 18 15 38 15 13 44 38 63 56
19 17 60 50 90 73 30 23 64 50 75 61 11 10 31 25 45 34 14 9 56 39 95 66 38
27 70 45 72 40 2 -5 26 -44 53 -86 28 -43 50 -80 50 -82 0 -3 18 -33 40 -67
43 -66 47 -79 28 -79 -7 0 -24 -9 -38 -20 -47 -38 -193 -140 -200 -140 -4 0
-20 19 -37 43 -17 23 -41 52 -53 65 -12 13 -20 25 -19 26 2 2 22 15 44 29 l39
27 19 -30 c12 -18 27 -30 40 -30 25 0 87 51 87 70 0 11 -17 37 -81 122 -24 32
-28 30 -208 -110 -74 -58 -91 -74 -91 -87 0 -12 26 -47 125 -165 22 -26 55
-66 74 -89 19 -22 41 -41 50 -41 9 0 30 13 46 28 45 41 170 133 260 191 44 28
91 60 105 71 l25 20 -19 32 c-10 18 -32 58 -49 88 -16 30 -38 66 -47 80 -9 14
-22 40 -29 58 -8 17 -17 32 -21 32 -4 0 -10 8 -13 18 -4 9 -17 37 -31 61 -30
52 -36 44 89 111 101 54 120 64 175 88 25 11 65 29 90 40 25 11 66 29 92 40
l46 20 12 -31 c6 -18 16 -40 21 -49 5 -10 9 -25 9 -33 0 -8 5 -24 10 -35 6
-11 15 -29 20 -40 6 -11 10 -28 10 -38 0 -10 3 -22 7 -26 9 -8 33 -77 33 -93
0 -7 -9 -13 -19 -13 -11 0 -23 -4 -26 -10 -3 -5 -13 -10 -22 -10 -8 0 -49 -16
-90 -36 -116 -55 -123 -57 -129 -36 -3 9 -20 45 -37 80 -16 34 -28 63 -26 65
38 22 69 37 78 37 6 0 17 -16 25 -35 12 -27 21 -35 40 -35 14 0 28 5 31 10 3
6 15 10 25 10 10 0 21 8 24 18 8 25 -48 166 -67 170 -14 3 -209 -83 -277 -122
-35 -20 -36 -45 -3 -102 15 -27 52 -97 82 -156 41 -82 58 -108 73 -108 11 0
59 20 107 45 48 25 91 45 95 45 8 0 46 16 132 56 28 13 65 27 83 30 17 4 38
15 45 26 12 17 11 28 -10 80 -13 34 -27 77 -30 97 -4 20 -10 41 -14 46 -3 6
-12 30 -19 55 -7 25 -17 54 -22 65 -4 11 -15 40 -23 65 -14 43 -13 45 7 57 12
7 32 12 44 13 12 0 25 5 28 10 3 6 16 10 28 10 12 0 42 8 67 17 25 9 64 20 88
24 23 5 61 13 85 18 23 5 67 14 97 20 30 6 67 14 81 17 30 7 28 13 53 -212 7
-66 16 -125 19 -132 10 -15 0 -20 -94 -37 -46 -8 -108 -20 -138 -26 -61 -12
-70 -6 -83 61 -4 19 -10 49 -13 66 -6 28 -4 31 34 44 23 7 43 11 44 9 2 -2 8
-20 13 -39 9 -34 12 -35 61 -38 45 -3 53 0 63 19 9 16 9 28 1 46 -6 13 -11 39
-11 58 0 58 -7 65 -64 64 -28 0 -105 -15 -171 -33 l-120 -32 3 -45 c2 -24 7
-48 12 -53 6 -6 10 -22 10 -37 0 -15 5 -31 10 -34 6 -3 10 -19 10 -35 0 -16 5
-32 10 -35 6 -3 10 -22 10 -41 0 -19 5 -34 10 -34 6 0 10 -13 10 -30 0 -28 2
-30 40 -30 21 0 49 4 62 9 13 5 68 19 123 30 55 12 119 26 143 31 23 6 55 10
71 10 15 0 42 5 59 11 l30 10 -4 77 c-3 42 -7 88 -10 102 -5 27 -24 215 -27
265 l-2 30 95 6 c52 3 181 5 285 5 l190 -1 -2 -90z"/>
<path d="M3875 6885 c-5 -3 -59 -9 -120 -15 -124 -11 -217 -23 -290 -39 -27
-6 -63 -14 -80 -17 -16 -3 -39 -9 -50 -14 -11 -5 -36 -11 -55 -14 -36 -6 -159
-42 -195 -56 -11 -4 -36 -13 -55 -20 -40 -14 -71 -27 -153 -64 -32 -14 -62
-26 -67 -26 -6 0 -10 -4 -10 -10 0 -5 -7 -10 -15 -10 -15 0 -55 -19 -65 -31
-3 -4 -16 -10 -30 -14 -14 -4 -52 -24 -85 -44 -33 -20 -73 -42 -88 -50 -15 -8
-27 -18 -27 -23 0 -4 -5 -8 -10 -8 -12 0 -73 -41 -78 -52 -2 -5 -8 -8 -14 -8
-24 0 -282 -215 -396 -330 -218 -219 -394 -458 -522 -706 -40 -76 -75 -143
-78 -149 -4 -5 -7 -12 -8 -15 -1 -7 -13 -39 -26 -70 -6 -14 -14 -34 -18 -45
-4 -11 -12 -31 -18 -45 -9 -22 -53 -152 -81 -245 -6 -16 -15 -55 -20 -85 -6
-30 -18 -84 -26 -120 -36 -151 -48 -291 -48 -560 0 -273 12 -418 48 -570 9
-36 20 -90 26 -120 6 -30 15 -71 21 -90 26 -83 51 -156 58 -175 4 -11 13 -36
20 -55 7 -19 19 -50 27 -67 7 -18 20 -50 27 -70 37 -105 257 -493 296 -523 4
-3 9 -12 12 -20 14 -34 185 -236 286 -337 160 -160 212 -206 352 -311 43 -32
203 -138 250 -166 83 -48 281 -146 296 -146 8 0 14 -4 14 -10 0 -5 7 -10 15
-10 8 0 23 -4 33 -9 24 -12 57 -25 127 -51 33 -12 68 -26 77 -31 10 -5 29 -9
42 -9 14 0 28 -4 31 -10 3 -5 18 -10 33 -10 15 -1 45 -8 67 -16 22 -8 52 -17
67 -19 15 -2 44 -9 65 -14 131 -36 685 -77 765 -58 18 4 78 12 133 17 175 16
254 30 450 81 44 12 46 13 90 23 41 10 82 25 132 47 24 11 49 19 57 19 8 0 31
8 53 19 21 10 58 28 83 39 175 78 428 219 438 244 2 4 9 8 15 8 7 0 24 10 39
23 16 12 49 38 74 57 160 120 372 322 495 470 48 58 209 276 209 284 0 2 16
28 35 57 31 47 182 346 206 407 5 12 13 32 18 45 16 40 49 131 57 157 13 42
13 44 20 75 3 17 9 39 14 50 14 36 43 153 55 230 36 216 48 344 49 525 1 205
-14 366 -54 580 -6 30 -13 70 -17 88 -3 18 -9 35 -14 38 -5 3 -9 18 -9 35 0
16 -4 37 -9 47 -5 9 -15 37 -21 62 -50 184 -159 436 -262 607 -21 35 -38 67
-38 72 0 5 -3 11 -7 13 -5 2 -30 37 -57 78 -27 41 -53 77 -58 78 -4 2 -8 10
-8 18 0 8 -4 14 -8 14 -4 0 -16 13 -25 30 -10 16 -23 35 -30 42 -7 7 -34 40
-62 73 -64 78 -297 310 -355 355 -25 19 -47 37 -50 40 -3 3 -23 19 -45 35 -22
17 -42 32 -45 36 -12 13 -202 139 -265 175 -67 38 -282 145 -355 177 -86 38
-244 88 -380 122 -14 4 -41 11 -60 16 -70 19 -222 45 -360 59 -105 12 -439 22
-455 15z m551 -1340 c186 -75 340 -138 343 -140 2 -3 -307 -4 -687 -3 -381 2
-684 7 -675 11 69 30 660 265 669 266 7 1 164 -60 350 -134z m354 -184 c0 -30
-33 -31 -701 -30 -650 2 -709 5 -709 31 0 5 317 8 705 8 398 0 705 -4 705 -9z
m-1100 -92 c3 0 -6 -4 -20 -8 l-25 -7 -3 -232 -2 -232 -80 0 c-44 0 -81 1 -81
3 -1 1 -4 106 -8 232 -6 218 -7 230 -25 230 -11 0 -21 6 -24 14 -4 12 17 13
129 8 74 -4 136 -7 139 -8z m358 -1 c-3 -7 -13 -13 -24 -13 -18 0 -19 -11 -22
-238 l-2 -238 -88 3 -87 3 -2 235 -1 235 -29 5 c-15 3 15 7 67 10 177 11 192
11 188 -2z m355 -3 c1 -5 -11 -11 -26 -13 l-28 -3 1 -232 1 -232 -90 -3 -91
-3 0 236 c0 226 -1 235 -19 235 -22 0 -34 13 -24 24 11 11 273 2 276 -9z m355
3 c-3 -7 -14 -14 -26 -16 -21 -3 -22 -6 -24 -235 l-3 -232 -90 0 -90 0 -3 233
c-2 221 -3 232 -22 232 -20 0 -33 13 -23 24 3 3 69 6 146 6 106 0 138 -3 135
-12z m52 -552 l0 -34 103 -7 c404 -26 947 -120 1362 -235 133 -37 142 -52 13
-21 -600 141 -1588 223 -2508 206 -644 -11 -1309 -81 -1857 -196 -53 -11 -97
-18 -99 -16 -4 4 227 67 376 102 308 72 716 132 1055 153 l110 7 3 32 3 33
282 3 c155 1 479 3 720 5 l437 2 0 -34z m-2245 -441 c-21 -60 -21 -462 0 -512
14 -33 14 -41 0 -76 -13 -33 -16 -95 -18 -361 -2 -289 0 -324 16 -355 9 -19
17 -35 17 -36 0 -2 -19 -6 -42 -9 -34 -5 -48 -14 -67 -42 -72 -105 -247 -221
-369 -244 -227 -45 -423 89 -449 307 -12 108 39 271 112 352 l37 41 -4 102
c-3 73 -9 113 -22 136 -17 32 -17 35 1 70 16 33 18 65 18 267 0 173 -3 236
-13 253 -8 13 -12 26 -9 28 6 6 97 21 272 44 282 37 520 72 524 76 11 10 9 -5
-4 -41z m1525 -200 l150 -75 140 70 140 70 120 0 c66 0 120 -2 120 -4 0 -2 -7
-20 -15 -39 -23 -54 -22 -444 1 -504 15 -39 15 -45 0 -83 -23 -57 -23 -413 -1
-467 8 -20 13 -38 11 -40 -3 -3 -63 -2 -135 2 l-130 8 17 25 c15 22 17 56 17
237 0 183 -2 215 -18 247 -18 35 -18 37 0 64 15 23 19 54 22 177 3 122 1 148
-10 145 -8 -2 -51 -22 -96 -46 l-83 -42 0 -93 c0 -67 5 -103 19 -132 18 -39
18 -42 0 -75 -17 -30 -19 -59 -19 -233 0 -153 3 -206 15 -234 8 -19 15 -37 15
-39 0 -2 -58 -4 -130 -4 -71 0 -130 3 -130 6 0 3 7 27 16 53 12 39 15 86 12
242 -3 169 -5 197 -22 221 -18 27 -18 29 0 55 14 23 18 49 19 133 0 94 -2 105
-20 115 -11 6 -50 27 -86 48 -36 20 -69 37 -72 37 -4 0 -7 -64 -7 -143 0 -120
3 -149 19 -180 18 -36 18 -38 0 -74 -17 -33 -19 -61 -19 -235 0 -154 3 -207
15 -235 8 -19 15 -37 15 -40 0 -5 -253 -2 -262 3 -3 2 1 19 10 37 14 27 17 66
17 242 0 187 -2 213 -19 241 -18 30 -18 31 0 65 17 30 19 62 22 250 3 179 1
223 -12 254 -9 21 -16 39 -16 41 0 2 50 4 110 4 l110 0 150 -75z m-476 11
c-23 -68 -16 -457 9 -505 17 -33 17 -36 0 -70 -26 -51 -27 -429 -2 -477 l16
-32 -45 -6 c-49 -7 -222 -8 -222 -2 0 2 7 20 15 39 22 53 22 412 0 464 -14 33
-14 40 2 82 26 66 27 459 2 508 l-17 32 52 4 c28 2 86 4 128 5 l77 2 -15 -44z
m1536 24 c124 -11 269 -23 323 -27 54 -3 100 -9 102 -13 3 -5 -2 -21 -10 -36
-22 -43 -22 -498 0 -551 9 -20 12 -40 8 -44 -5 -3 -64 -16 -133 -28 -250 -42
-338 -58 -348 -65 -17 -10 -15 -253 3 -311 8 -28 15 -51 15 -52 0 -11 -244 8
-256 20 -2 2 3 20 11 40 12 28 15 79 15 229 0 170 -3 198 -20 236 -19 41 -19
45 -2 70 25 38 31 450 8 507 -9 21 -16 39 -16 41 0 8 78 3 300 -16z m-2250
-24 c0 -2 -7 -23 -15 -46 -22 -63 -22 -443 1 -500 15 -37 15 -43 0 -80 -12
-30 -16 -74 -16 -171 l0 -131 78 7 c140 11 131 5 134 93 l3 77 90 47 c50 26
93 47 98 48 4 0 7 -81 7 -180 0 -138 4 -189 15 -217 8 -19 15 -39 15 -43 0 -3
-26 -7 -57 -9 -32 -1 -71 -4 -88 -6 -22 -4 -502 -45 -520 -45 -1 0 3 18 11 39
9 27 14 102 15 238 2 172 0 202 -15 232 -17 31 -17 36 -2 75 22 58 23 459 2
511 -8 19 -14 35 -13 36 1 1 56 7 122 14 66 6 123 13 128 13 4 1 7 0 7 -2z
m3108 -75 c195 -33 356 -61 359 -64 2 -3 -3 -26 -11 -51 -25 -72 -22 -411 3
-485 18 -52 18 -55 0 -95 -16 -35 -19 -67 -19 -217 0 -131 4 -189 16 -228 8
-29 14 -54 12 -56 -4 -4 -711 115 -716 120 -3 2 3 20 12 39 13 28 16 70 16
233 0 177 -2 203 -19 237 -20 38 -20 38 0 74 17 33 19 58 19 255 0 171 -3 225
-15 254 -15 35 -17 43 -12 43 1 0 161 -27 355 -59z"/>
<path d="M3970 5620 c-8 -5 -10 -10 -5 -10 6 0 17 5 25 10 8 5 11 10 5 10 -5
0 -17 -5 -25 -10z"/>
<path d="M3875 5540 c-3 -5 1 -10 9 -10 9 0 16 5 16 10 0 6 -4 10 -9 10 -6 0
-13 -4 -16 -10z"/>
<path d="M3398 4723 c7 -3 16 -2 19 1 4 3 -2 6 -13 5 -11 0 -14 -3 -6 -6z"/>
<path d="M2160 4048 c-74 -10 -145 -21 -157 -24 -22 -4 -23 -7 -23 -139 0
-110 4 -144 20 -186 18 -49 18 -53 2 -83 -15 -27 -17 -67 -17 -336 0 -279 2
-307 18 -332 23 -33 92 -68 136 -68 62 0 150 60 181 125 20 42 21 56 18 337
-3 261 -5 297 -21 321 -17 26 -17 28 0 60 14 26 18 63 21 190 l4 157 -24 -1
c-12 -1 -84 -10 -158 -21z"/>
<path d="M1758 3178 c-37 -56 -59 -112 -67 -169 -24 -176 70 -313 232 -339 59
-9 102 4 52 16 -44 10 -105 43 -105 55 0 7 7 8 18 3 9 -4 51 -9 93 -12 57 -3
84 0 115 14 l39 18 -88 6 c-77 6 -94 11 -132 38 -41 29 -47 30 -97 22 -29 -4
-54 -7 -55 -6 -1 1 4 24 12 51 17 54 21 325 6 325 -5 0 -15 -10 -23 -22z"/>
<path d="M5070 3737 c0 -91 4 -168 8 -171 5 -3 64 7 133 23 l124 27 3 131 3
131 -88 6 c-48 4 -109 9 -135 12 l-48 6 0 -165z"/>
<path d="M5873 3805 c-2 -8 -3 -81 -1 -162 2 -112 7 -155 19 -177 15 -27 15
-32 -3 -72 -16 -36 -18 -63 -16 -166 l3 -122 128 -22 c70 -11 127 -18 128 -15
1 3 0 62 -1 131 -1 83 -7 137 -17 162 -13 34 -13 42 1 80 13 34 16 73 14 188
l-3 144 -103 17 c-57 9 -112 19 -123 22 -12 3 -22 0 -26 -8z"/>
</g>
</svg>
